<svg viewBox="0 0 365.496 91.4185" xmlns="http://www.w3.org/2000/svg" xmlns:xlink="http://www.w3.org/1999/xlink" width="365.495605" height="91.418457" fill="none" customFrame="#000000">
	<g id="Group">
		<path id="Vector" d="M219.188 37.2448L204.987 37.2448L202.562 44.7285C202.424 45.0718 202.285 45.3466 202.077 45.4151C201.869 45.5524 201.523 45.6211 201.107 45.6211L195.981 45.6211C195.565 45.6211 195.288 45.4839 195.219 45.2778C195.081 45.0718 195.081 44.7973 195.219 44.454L207.273 9.43812C207.481 8.88886 207.619 8.47689 207.827 8.13361C208.035 7.79031 208.243 7.51569 208.52 7.37837C208.797 7.17238 209.143 7.03506 209.49 6.96642C209.836 6.89776 210.321 6.8291 210.806 6.8291L213.231 6.8291C214.339 6.8291 215.17 7.03506 215.655 7.37837C216.14 7.72165 216.556 8.40823 216.902 9.50679L229.025 44.5225C229.094 44.7973 229.164 45.0718 229.025 45.3466C228.956 45.5524 228.679 45.6897 228.263 45.6897L223.137 45.6897C222.721 45.6897 222.444 45.6211 222.167 45.5524C221.89 45.4839 221.682 45.2091 221.544 44.7973L219.188 37.2448ZM206.719 31.4774L217.456 31.4774L214.547 22.2086L212.191 14.3129L211.914 14.3129L209.628 22.0026L206.719 31.4774Z" fill="rgb(0,0,0)" fill-rule="nonzero" />
		<path id="Vector" d="M240.94 44.5915C240.94 45.0721 240.871 45.4154 240.663 45.5527C240.525 45.6899 240.178 45.7587 239.624 45.7587L235.467 45.7587C235.052 45.7587 234.775 45.6899 234.498 45.5527C234.29 45.4154 234.151 45.0721 234.151 44.5915L234.151 10.0562C234.151 9.02634 234.359 8.20246 234.844 7.72183C235.329 7.17257 236.091 6.89795 237.269 6.89795L250.569 6.89795C252.441 6.89795 254.102 7.17257 255.696 7.72183C257.221 8.27112 258.536 9.09501 259.644 10.1249C260.754 11.1548 261.583 12.3906 262.208 13.9011C262.83 15.3429 263.108 16.9907 263.108 18.7072C263.108 19.6684 262.969 20.9043 262.623 22.2774C262.276 23.6506 261.654 25.0238 260.754 26.2595C259.783 27.5642 258.467 28.6627 256.735 29.5553C255.003 30.4477 252.787 30.9283 249.947 30.9283L240.871 30.9283L240.871 44.5915L240.94 44.5915ZM256.11 19.1878C256.11 18.5699 256.042 17.8833 255.764 17.1281C255.557 16.3728 255.21 15.7549 254.727 15.137C254.241 14.519 253.548 14.0384 252.648 13.6265C251.748 13.2145 250.64 13.0085 249.254 13.0085L241.009 13.0085L241.009 25.2984L249.322 25.2984C251.677 25.2984 253.409 24.7491 254.449 23.5819C255.557 22.4147 256.11 20.9043 256.11 19.1878Z" fill="rgb(0,0,0)" fill-rule="nonzero" />
		<path id="Vector" d="M275.23 44.3852C275.23 44.9345 275.162 45.2091 274.952 45.3464C274.745 45.4839 274.469 45.5524 273.913 45.5524L269.689 45.5524C269.272 45.5524 268.996 45.4839 268.718 45.3464C268.511 45.2091 268.372 44.8658 268.372 44.3852L268.372 16.7159C268.372 15.4114 268.511 14.1755 268.857 13.0084C269.204 11.8412 269.689 10.7426 270.519 9.85007C271.283 8.9575 272.32 8.20227 273.569 7.65299C274.816 7.10372 276.409 6.8291 278.349 6.8291L293.657 6.8291C294.211 6.8291 294.489 6.89776 294.626 7.10372C294.765 7.3097 294.836 7.65299 294.836 8.06495L294.836 11.4979C294.836 11.9785 294.765 12.3218 294.626 12.4591C294.489 12.6651 294.143 12.7337 293.657 12.7337L279.039 12.7337C277.656 12.7337 276.616 13.077 276.062 13.6263C275.438 14.2442 275.23 15.1368 275.23 16.304L275.23 44.3852Z" fill="rgb(0,0,0)" fill-rule="nonzero" />
		<path id="Vector" d="M330.096 6.83066C330.514 6.83066 330.789 7.24262 330.653 7.5859C329.196 11.5681 322.408 29.9685 319.221 38.4136C316.657 45.348 313.194 46.3092 305.02 45.2795C303.22 45.0735 302.942 40.2674 305.782 40.3359C307.443 40.3359 308.829 40.2674 310.354 40.0614C312.709 39.7181 312.987 38.1388 312.223 36.3538C308.622 27.9774 301.417 11.3621 299.755 7.5859C299.616 7.17396 299.894 6.762 300.309 6.762C301.763 6.762 304.674 6.762 306.128 6.762C306.475 6.762 306.753 6.96798 306.821 7.24262C309.593 14.5204 312.78 21.8669 315.756 29.7625L323.586 7.24262C323.655 6.89932 324.001 6.69336 324.279 6.69336L330.096 6.69336L330.096 6.83066Z" fill="rgb(0,0,0)" fill-rule="nonzero" />
		<path id="Vector" d="M340.349 40.0597C336.608 36.3521 334.739 31.7521 334.739 26.1907C334.739 20.6294 336.608 15.9607 340.349 12.3218C344.089 8.68288 348.801 6.8291 354.481 6.8291C358.085 6.8291 361.272 7.58435 364.041 8.9575C364.458 9.16348 364.666 9.57542 364.666 9.98739L364.666 14.2442C364.666 14.6561 364.249 14.8621 363.902 14.7248C361.062 13.077 357.946 12.2531 354.552 12.2531C350.672 12.2531 347.276 13.6263 344.646 16.2353C342.013 18.8443 340.766 22.1399 340.766 26.1222C340.766 30.1044 342.081 33.4687 344.714 36.0776C347.415 38.6865 350.741 39.9225 354.759 39.9225C358.639 39.9225 361.894 39.0298 364.666 37.1075C365.012 36.9015 365.495 37.1075 365.495 37.5193L365.495 41.7075C365.495 42.1196 365.288 42.5314 364.942 42.7374C361.962 44.454 358.5 45.3464 354.481 45.3464C348.869 45.4839 344.16 43.6986 340.349 40.0597Z" fill="rgb(0,0,0)" fill-rule="nonzero" />
		<path id="Vector" d="M327.395 78.7147L327.395 60.7261L323.791 60.7261L323.791 68.004L316.725 68.004L316.725 60.7261L313.192 60.7261L313.192 78.7147L316.725 78.7147L316.725 71.2995L323.791 71.2995L323.791 78.7147L327.395 78.7147Z" fill="rgb(0,0,0)" fill-rule="nonzero" />
		<path id="Vector" d="M339.517 64.0904L344.504 64.0904L344.504 60.7261L330.997 60.7261L330.997 64.0904L335.916 64.0904L335.916 78.7147L339.517 78.7147L339.517 64.0904Z" fill="rgb(0,0,0)" fill-rule="nonzero" />
		<path id="Vector" d="M364.525 82.0103L364.525 75.3504L362.17 75.3504L362.17 60.7261L358.569 60.7261L358.569 75.3504L351.642 75.3504L351.642 60.7261L348.108 60.7261L348.108 78.7147L360.923 78.7147L360.923 82.0103L364.525 82.0103Z" fill="rgb(0,0,0)" fill-rule="nonzero" />
		<path id="Vector" d="M115.342 56.7444C115.342 53.1056 115.411 49.4665 115.342 45.7589C114.788 28.251 102.041 14.9314 84.7225 13.8328C70.1056 13.0089 56.8047 22.6211 52.6482 37.108C48.6995 50.977 55.0035 66.0132 67.9579 72.673C70.6598 74.0462 73.2923 75.0761 76.0631 75.7627C96.4994 78.5777 101.833 68.073 103.704 68.8281L103.704 72.8105C103.704 74.3895 106.198 76.4494 109.177 76.4494C115.411 76.4494 115.273 72.1924 115.411 68.4163C115.411 64.6402 115.342 60.6578 115.342 56.7444ZM83.1984 64.9147C72.5303 64.846 63.6631 55.989 63.5938 45.3471C63.5245 34.7736 72.8765 25.7106 83.6835 25.7794C94.2133 25.8481 103.219 35.0484 103.081 45.5531C102.873 56.2638 93.9361 64.9832 83.1984 64.9147Z" fill="rgb(0,0,0)" fill-rule="nonzero" />
		<path id="Vector" d="M83.8228 35.7344C89.1569 36.0091 93.2441 40.5406 92.8977 45.8272C92.5514 50.8393 87.9794 54.8902 82.9222 54.6154C77.8651 54.3409 73.7085 49.9467 73.8471 44.8661C73.9164 39.5107 78.2808 35.4598 83.8228 35.7344Z" fill="rgb(0,0,0)" fill-rule="nonzero" />
		<path id="Vector" d="M99.1324 1.54246C116.936 5.25001 132.384 11.9785 146.378 23.2385C153.929 29.2805 161.41 35.597 166.191 44.2479C166.191 44.2479 166.883 45.5526 166.883 46.7198C166.883 47.6809 166.191 48.9854 166.191 48.9854C165.082 50.7705 163.489 52.3497 162.173 54.2035C146.309 72.1234 127.743 83.452 104.12 89.0819C102.319 89.494 93.8676 91.4851 85.6931 91.4163C76.8259 91.3478 68.5129 90.1806 67.266 89.9058C39.8331 84.0013 18.0808 71.162 1.45477 48.9854C1.45477 48.9854 0 47.2004 0 46.3077C0 44.9345 4.22578 39.9912 5.74983 38.0686C20.4361 19.8743 39.1404 9.23221 61.7933 2.98428C63.8715 2.36636 72.1153 0.306607 80.3588 0.0319728C89.157 -0.242662 97.8856 1.33648 99.1324 1.54246ZM84.8618 84.6192C87.1479 84.7565 90.7503 84.3446 94.2139 83.7953C117.975 80.1565 141.39 65.5321 157.393 48.2303C158.64 46.9256 158.501 46.1704 157.323 44.866C149.565 36.2836 138.55 26.8773 128.713 20.7668C116.105 13.0084 100.38 6.34854 85.416 6.4172C56.0435 6.55452 28.8877 23.1699 10.322 44.9345C9.21355 46.2392 9.62921 46.9943 10.5991 48.1615C15.1019 53.3109 23.7613 61.2066 29.1647 65.3261C45.0288 77.4788 63.3174 84.2759 84.8618 84.6192Z" fill="rgb(0,0,0)" fill-rule="nonzero" />
	</g>
</svg>
