<svg viewBox="0 0 131 120" xmlns="http://www.w3.org/2000/svg" xmlns:xlink="http://www.w3.org/1999/xlink" width="131.000000" height="120.000000" fill="none" customFrame="#000000">
	<path id="Vector" d="M128.976 21.5961L97.1075 41.1788L66.5493 0.526999C66.4263 0.363382 66.2669 0.230574 66.0835 0.1391C65.9002 0.0476256 65.698 0 65.493 0C65.288 0 65.0858 0.0476256 64.9025 0.1391C64.7191 0.230574 64.5596 0.363382 64.4367 0.526999L33.8949 41.1788L2.01017 21.5961C1.07672 21.0244 -0.135126 21.792 0.012261 22.8863L12.5238 117.713C12.7039 119.004 13.8175 120 15.144 120L115.875 120C117.185 120 118.315 119.02 118.479 117.713L130.99 22.8863C131.121 21.792 129.926 21.0244 128.976 21.5961ZM108.342 108.828L22.6443 108.828L13.8339 41.9628L36.728 56.0252L65.5012 17.7416L94.2744 56.0252L117.168 41.9628L108.342 108.828ZM65.5012 59.5694C55.3315 59.5694 47.0614 67.8173 47.0614 77.9599C47.0614 88.1024 55.3315 96.3504 65.5012 96.3504C75.6709 96.3504 83.9409 88.1024 83.9409 77.9599C83.9409 67.8173 75.6709 59.5694 65.5012 59.5694ZM65.5012 85.8485C61.1451 85.8485 57.6078 82.3207 57.6078 77.9599C57.6078 73.6154 61.1451 70.0712 65.5012 70.0712C69.8573 70.0712 73.3946 73.5991 73.3946 77.9599C73.3946 82.3043 69.8573 85.8485 65.5012 85.8485Z" fill="rgb(51,51,51)" fill-rule="evenodd" />
</svg>
