<svg viewBox="0 0 824.341 240.469" xmlns="http://www.w3.org/2000/svg" xmlns:xlink="http://www.w3.org/1999/xlink" width="824.340820" height="240.468750" fill="none" customFrame="#000000">
	<g id="NEOS">
		<path id="Vector" d="M121.122 136.216C121.122 142.962 115.662 148.422 108.916 148.422C102.169 148.422 96.7095 142.962 96.7095 136.216C96.7095 129.469 102.169 124.01 108.916 124.01C115.662 124.01 121.122 129.469 121.122 136.216Z" fill="rgb(0,161,174)" fill-rule="nonzero" />
		<path id="Vector" d="M108.951 65.2031C73.5844 65.2031 42.4606 83.5991 24.5515 111.28L33.8366 120.565C49.1724 95.1097 77.0966 78.0351 108.916 78.0351C140.735 78.0351 168.659 95.1097 183.995 120.565L193.28 111.28C175.371 83.5991 144.247 65.2031 108.881 65.2031L108.951 65.2031Z" fill="rgb(0,161,174)" fill-rule="nonzero" />
		<path id="Vector" d="M108.95 98.2754C82.6599 98.2754 59.9171 113.785 49.415 136.145L59.2216 145.952C66.6287 125.643 86.1374 111.107 108.95 111.107C131.762 111.107 151.271 125.643 158.678 145.952L168.485 136.145C157.983 113.785 135.24 98.2754 108.95 98.2754Z" fill="rgb(0,161,174)" fill-rule="nonzero" />
		<path id="Vector" d="M108.95 31.8193C64.3686 31.8193 24.7598 53.4146 0 86.6943L9.21546 95.9098C31.541 64.8904 67.9157 44.6513 108.95 44.6513C149.985 44.6513 186.359 64.8904 208.685 95.9098L217.9 86.6943C193.141 53.4146 153.532 31.8193 108.95 31.8193Z" fill="rgb(0,161,174)" fill-rule="nonzero" />
		<path id="Vector" d="M108.951 207.084C73.5844 207.084 42.4606 188.688 24.5515 161.007L33.8366 151.722C49.1724 177.177 77.0966 194.252 108.916 194.252C140.735 194.252 168.659 177.177 183.995 151.722L193.28 161.007C175.371 188.688 144.247 207.084 108.881 207.084L108.951 207.084Z" fill="rgb(0,161,174)" fill-rule="nonzero" />
		<path id="Vector" d="M108.95 174.015C82.6599 174.015 59.9171 158.506 49.415 136.145L59.2216 126.339C66.6287 146.647 86.1374 161.183 108.95 161.183C131.762 161.183 151.271 146.647 158.678 126.339L168.485 136.145C157.983 158.506 135.24 174.015 108.95 174.015Z" fill="rgb(0,161,174)" fill-rule="nonzero" />
		<path id="Vector" d="M108.95 240.469C64.3686 240.469 24.7598 218.874 0 185.594L9.21546 176.379C31.541 207.398 67.9157 227.637 108.95 227.637C149.985 227.637 186.359 207.398 208.685 176.379L217.9 185.594C193.141 218.874 153.532 240.469 108.95 240.469Z" fill="rgb(0,161,174)" fill-rule="nonzero" />
		<path id="Vector" d="M362.563 71.1143L384.646 71.1143L384.646 201.938L360.686 201.938L290.405 106.48L290.405 201.938L268.323 201.938L268.323 71.1143L290.405 71.1143L362.563 168.797L362.563 71.1143Z" fill="rgb(32,34,29)" fill-rule="nonzero" />
		<path id="Vector" d="M501.734 71.1168L501.734 91.8775L431.94 91.8775L431.94 126.513L494.639 126.513L494.639 146.161L431.94 146.161L431.94 181.145L501.734 181.145L501.734 201.906L409.823 201.906L409.823 71.082L501.734 71.082L501.734 71.1168Z" fill="rgb(32,34,29)" fill-rule="nonzero" />
		<path id="Vector" d="M631.201 184.828C618.195 197.73 602.094 204.198 582.933 204.198C563.772 204.198 547.671 197.73 534.665 184.828C521.659 171.927 515.122 155.826 515.122 136.526C515.122 117.226 521.625 101.159 534.665 88.2231C547.671 75.3216 563.772 68.8535 582.933 68.8535C602.094 68.8535 618.195 75.3216 631.201 88.2231C644.206 101.125 650.744 117.226 650.744 136.526C650.744 155.826 644.241 171.892 631.201 184.828ZM615.274 102.933C606.475 93.6828 595.695 89.0925 582.933 89.0925C570.17 89.0925 559.39 93.7176 550.592 102.933C541.794 112.183 537.412 123.381 537.412 136.526C537.412 149.671 541.794 160.903 550.592 170.118C559.39 179.368 570.17 183.959 582.933 183.959C595.695 183.959 606.475 179.334 615.274 170.118C624.072 160.903 628.453 149.705 628.453 136.526C628.453 123.346 624.072 112.148 615.274 102.933Z" fill="rgb(32,34,29)" fill-rule="nonzero" />
		<path id="Vector" d="M750.479 140.385C744.428 134.543 734.865 130.057 721.337 126.649L708.227 123.171C700.055 121.085 694.213 118.616 690.84 115.834C687.78 113.33 686.284 110.131 686.284 106.097C686.284 100.637 688.406 96.3947 692.718 93.1258C697.238 89.7179 703.428 87.9792 711.079 87.9792C718.243 87.9792 724.12 89.6136 728.606 92.8477C733.022 96.047 735.63 100.359 736.604 106.062L737.021 108.462L758.234 108.462L758.025 105.401C757.33 94.4821 752.531 85.4059 743.767 78.4161C735.108 71.5654 724.293 68.0879 711.6 68.0879C697.725 68.0879 686.354 71.6001 677.73 78.5899C668.932 85.684 664.48 95.1428 664.48 106.653C664.48 116.286 667.367 124.145 673 130.022C678.495 135.725 687.293 140.176 699.082 143.167L715.148 147.34C723.285 149.357 729.266 152 732.952 155.234C736.36 158.225 738.03 161.841 738.03 166.327C738.03 171.578 735.7 175.856 730.901 179.403C725.893 183.089 719.425 184.967 711.67 184.967C703.394 184.967 696.508 183.158 691.222 179.646C686.11 176.203 683.189 171.752 682.32 165.98L681.938 163.511L660.551 163.511L660.794 166.605C661.664 178.22 666.741 187.644 675.852 194.634C684.789 201.485 696.334 204.927 710.175 204.927C725.128 204.927 737.23 201.276 746.132 194.078C755.208 186.74 759.833 176.76 759.833 164.38C759.833 154.399 756.704 146.332 750.479 140.35L750.479 140.385Z" fill="rgb(32,34,29)" fill-rule="nonzero" />
		<path id="Vector" d="M809.387 58.7697C805.736 58.7697 804.136 57.9351 801.702 55.3966C799.303 52.8928 798.364 49.8326 798.364 45.451C798.364 42.5646 798.816 36.4095 799.685 27.0203L801.354 9.11104L788.175 9.11104C787.305 24.2034 786.262 35.2619 785.045 42.2169C783.828 49.1719 782.472 53.6927 781.011 55.7096C779.55 57.7614 777.534 58.7697 774.995 58.7697C773.082 58.7697 771.483 58.2134 770.161 57.1006C768.84 55.9878 768.214 54.4924 768.214 52.6841C768.214 50.8758 769.326 48.5459 771.587 45.5205C774.856 41.104 777.325 36.5486 778.924 31.7844C780.559 27.0202 781.776 19.474 782.611 9.11104L778.368 9.11104C774.96 9.11104 772.352 9.87617 770.544 11.3715C768.735 12.8668 767.031 15.0576 765.397 17.8744L763.171 17.8744C764.388 13.4232 765.919 9.77185 767.831 6.9203C769.744 4.06875 771.691 2.19084 773.708 1.32147C775.725 0.452092 779.307 0 784.454 0L824.167 0L824.167 9.07633L809.735 9.07633L808.483 27.9939C808.24 31.2628 808.101 34.1143 808.101 36.5138C808.101 42.2864 809.214 46.0769 810.118 47.0506C811.022 48.0591 811.961 48.9633 813.873 48.9633C817.838 48.9633 821.35 46.4594 822.115 41.4171L824.341 41.4171C822.984 52.9624 817.246 58.735 809.387 58.735" fill="rgb(32,34,29)" fill-rule="nonzero" />
	</g>
</svg>
