<svg viewBox="0 0 295 83.6982" xmlns="http://www.w3.org/2000/svg" xmlns:xlink="http://www.w3.org/1999/xlink" width="295.000000" height="83.698242" fill="none" customFrame="#000000">
	<g id="SIGURD Black">
		<path id="Vector" d="M289.591 21.2579C288.27 21.2579 287.692 20.956 286.811 20.0378C285.943 19.1321 285.604 18.0252 285.604 16.4403C285.604 15.3963 285.767 13.1699 286.082 9.77364L286.685 3.2956L281.918 3.2956C281.604 8.75474 281.226 12.7548 280.786 15.2705C280.346 17.7862 279.855 19.4215 279.327 20.151C278.799 20.8932 278.069 21.2579 277.151 21.2579C276.459 21.2579 275.88 21.0567 275.402 20.6542C274.924 20.2517 274.698 19.7108 274.698 19.0567C274.698 18.4026 275.1 17.5598 275.918 16.4655C277.1 14.868 277.994 13.2202 278.572 11.4969C279.163 9.77364 279.604 7.04404 279.905 3.2956L278.371 3.2956C277.138 3.2956 276.195 3.57236 275.541 4.11325C274.887 4.65413 274.27 5.44658 273.679 6.46545L272.874 6.46545C273.314 4.85538 273.868 3.53463 274.56 2.50318C275.251 1.47173 275.956 0.792462 276.685 0.477995C277.415 0.163529 278.711 0 280.572 0L294.937 0L294.937 3.28305L289.717 3.28305L289.264 10.1258C289.176 11.3082 289.126 12.3397 289.126 13.2076C289.126 15.2957 289.528 16.6667 289.855 17.0189C290.182 17.3837 290.522 17.7108 291.214 17.7108C292.648 17.7108 293.918 16.8051 294.195 14.9812L295 14.9812C294.509 19.1573 292.434 21.2454 289.591 21.2454" fill="rgb(32,34,29)" fill-rule="nonzero" />
		<path id="Vector" d="M129.214 28.4653L120.861 28.4653L120.861 69.3963L129.214 69.3963L129.214 28.4653Z" fill="rgb(32,34,29)" fill-rule="nonzero" />
		<path id="Vector" d="M188.434 69.2586C179 69.2586 173.051 63.8875 173.051 52.9567L173.051 28.0635L181.403 28.0635L181.403 53.0447C181.403 58.7554 184.133 61.5605 188.523 61.5605C192.913 61.5605 195.642 58.8309 195.642 53.2082L195.642 28.0635L203.919 28.0635L203.919 52.7931C203.831 63.963 197.793 69.2586 188.447 69.2586L188.434 69.2586Z" fill="rgb(32,34,29)" fill-rule="nonzero" />
		<path id="Vector" d="M230.622 68.6673L223.176 55.3465L217.804 55.3465L217.804 68.6673L209.452 68.6673L209.452 28.0508L224.584 28.0508C233.44 28.0508 239.062 32.6797 239.062 41.5351C239.062 47.7364 235.918 51.6232 231.54 53.6106L240.144 68.6673L230.635 68.6673L230.622 68.6673ZM230.71 41.6986C230.71 37.4847 228.069 35.6609 224.182 35.6609L217.893 35.6609L217.893 47.8999L224.345 47.8999C228.32 47.8999 230.71 45.7489 230.71 41.9502L230.71 41.6986Z" fill="rgb(32,34,29)" fill-rule="nonzero" />
		<path id="Vector" d="M256.598 68.428L243.528 68.428L243.528 27.8115L256.598 27.8115C268.183 27.8115 275.956 35.9122 275.956 47.8242L275.956 48.3147C276.044 60.2267 268.258 68.4154 256.598 68.4154L256.598 68.428ZM267.264 47.9122C267.264 39.8115 262.874 35.4216 256.836 35.4216L251.881 35.4216L251.881 60.8179L256.836 60.8179C262.962 60.8179 267.264 56.516 267.264 48.4154L267.264 47.9248L267.264 47.9122Z" fill="rgb(32,34,29)" fill-rule="nonzero" />
		<path id="Vector" d="M147.326 48.8179L147.326 49.4846C147.326 50.7298 147.49 51.8871 147.817 52.8808L159.402 52.6292L159.402 60.4909C157.666 61.5601 155.59 62.1513 153.276 62.1513C147.326 62.1513 142.848 57.5978 142.848 49.1701L142.848 48.5034C142.848 41.0569 147.238 35.8493 153.024 35.8493C156.42 35.8493 158.81 36.843 162.622 39.6606L165.515 31.9625C161.376 29.1449 157.993 28.0757 153.188 28.0757C142.181 28.0757 134.156 36.7675 134.156 48.755L134.156 49.2456C134.156 61.8997 142.018 69.8369 153.012 69.8369C158.961 69.8369 163.678 67.5978 167.326 64.7928L167.326 44.9437L147.968 45.1952C147.552 46.2644 147.301 47.5097 147.301 48.8305L147.326 48.8179Z" fill="rgb(32,34,29)" fill-rule="nonzero" />
		<path id="Vector" d="M103.817 45.4345C97.943 42.793 96.5341 42.0383 96.5341 39.5603C96.5341 37.4093 98.27 35.925 101.251 35.925C104.232 35.925 107.125 37.1703 111.918 40.2269L114.647 32.9439C109.679 29.6357 105.792 28.3149 101.163 28.3149C93.6411 28.3149 88.182 32.9439 88.182 40.0634C88.182 47.1829 92.4838 49.6609 99.6788 52.7175C105.39 55.1201 106.547 56.3528 106.547 58.5037C106.547 61.0698 104.484 62.3151 101.339 62.3151C97.6159 62.3151 92.987 60.076 89.6788 57.1829L86.9492 64.5415C90.9995 67.8497 96.3832 69.8371 101.503 69.8371C109.276 69.8371 114.899 65.4471 114.899 57.8371C114.899 51.5477 111.264 48.7427 103.817 45.4345Z" fill="rgb(32,34,29)" fill-rule="nonzero" />
		<path id="Vector" d="M18.9612 72.0508C17.7034 72.0508 16.6845 71.032 16.6845 69.7741C16.6845 68.5162 17.7034 67.4973 18.9612 67.4973C20.2191 67.4973 21.238 68.5162 21.238 69.7741C21.238 71.032 20.2191 72.0508 18.9612 72.0508ZM47.2254 24.8431C48.4833 24.8431 49.5022 25.862 49.5022 27.1198C49.5022 28.3777 48.4833 29.3966 47.2254 29.3966C45.9676 29.3966 44.9613 28.3777 44.9487 27.1198C44.9487 25.862 45.9676 24.8431 47.2254 24.8431ZM45.9299 45.2457L24.5713 45.2457C20.4581 45.2457 17.1247 41.8998 17.1247 37.7866C17.1247 33.6733 20.4707 30.3274 24.5713 30.3274L44.2192 30.3274C45.0117 31.0696 46.0556 31.5224 47.2254 31.5224C49.6531 31.5224 51.6406 29.5475 51.6406 27.1073C51.6406 24.667 49.6657 22.6922 47.2254 22.6922C46.0556 22.6922 45.0117 23.1576 44.2192 23.8997L24.5713 23.8997C16.9235 23.8997 10.697 30.1261 10.697 37.774C10.697 45.4218 16.9235 51.6482 24.5713 51.6482L45.9299 51.6482C50.0431 51.6482 53.3764 54.9942 53.3764 59.1074C53.3764 63.2206 50.0305 66.5665 45.9299 66.5665L21.9675 66.5665C21.1751 65.8244 20.131 65.359 18.9612 65.359C16.5335 65.359 14.5461 67.3338 14.5461 69.7741C14.5461 72.2143 16.521 74.1892 18.9612 74.1892C20.131 74.1892 21.1751 73.7238 21.9675 72.9817L45.9299 72.9817C53.5777 72.9817 59.8041 66.7552 59.8041 59.1074C59.8041 51.4596 53.5777 45.2331 45.9299 45.2331L45.9299 45.2457ZM27.5525 37.7614C27.5525 39.0193 26.5336 40.0381 25.2757 40.0381C24.0179 40.0381 22.999 39.0193 22.999 37.7614C22.999 36.5035 24.0179 35.4846 25.2757 35.4846C26.5336 35.4846 27.5525 36.5035 27.5525 37.7614ZM42.9361 59.1325C42.9361 57.8747 43.955 56.8558 45.2129 56.8558C46.4707 56.8558 47.4896 57.8747 47.4896 59.1325C47.4896 60.3904 46.4707 61.4093 45.2129 61.4093C43.955 61.4093 42.9361 60.3904 42.9361 59.1325ZM45.4016 77.2835L18.7096 77.2835C14.5964 77.2835 11.2505 73.9376 11.2505 69.8118C11.2505 67.8118 12.0304 65.9376 13.4392 64.5288C14.848 63.12 16.7222 62.3401 18.7096 62.3401L23.892 62.3401C24.1185 62.3401 24.3449 62.3653 24.5713 62.3653L42.2443 62.3653C43.0242 63.0823 44.0682 63.5351 45.2129 63.5351C47.6406 63.5351 49.628 61.5602 49.628 59.12C49.628 56.6797 47.6531 54.7049 45.2129 54.7049C44.0305 54.7049 42.9613 55.1828 42.1689 55.9376L24.2569 55.9376C19.4141 55.8369 14.8983 53.8872 11.5147 50.3652C8.05554 46.7803 6.25676 42.0507 6.44544 37.0822C6.81022 27.4595 15.1751 19.623 25.0996 19.623C25.0996 19.623 40.6217 19.6355 47.238 19.623L47.2506 19.623C49.2255 19.623 51.0746 20.3903 52.4834 21.7991C53.9048 23.2205 54.6847 25.0947 54.6847 27.1073C54.6847 31.2079 51.3513 34.5412 47.2506 34.5412L28.282 34.5412C27.4895 33.7991 26.4455 33.3337 25.2757 33.3337C22.8481 33.3337 20.8606 35.3086 20.8606 37.7488C20.8606 40.1891 22.8355 42.1639 25.2757 42.1639C26.4455 42.1639 27.4895 41.6985 28.282 40.9564L45.9928 40.9564C50.9362 40.9689 55.5526 42.9438 58.9991 46.5287C62.4583 50.1137 64.257 54.8432 64.0683 59.8118C63.7035 69.4345 55.3387 77.271 45.4142 77.271L45.4016 77.2835ZM63.6155 42.0884C61.6155 40.013 59.3261 38.34 56.8356 37.0947C59.4645 34.5664 61.0997 31.0318 61.0997 27.1073C61.0997 23.1827 59.6532 19.8871 57.0117 17.2582C54.3827 14.6418 50.9362 13.1827 47.2129 13.2078C40.5965 13.2204 25.0996 13.2078 25.087 13.2078C11.7536 13.2078 0.508329 23.8117 0.0177608 36.8432C-0.233812 43.5853 2.19388 49.9627 6.87315 54.8306C8.13101 56.1388 9.51461 57.2835 10.9863 58.2646C10.2442 58.7678 9.5398 59.3338 8.89829 59.9879C6.26935 62.6168 4.82282 66.1011 4.82282 69.8118C4.82282 77.4722 11.0492 83.6987 18.7096 83.6987L45.4016 83.6987C58.735 83.6987 69.9803 73.0948 70.4709 60.0634C70.7224 53.3212 68.2947 46.9438 63.6155 42.0759" fill="rgb(0,173,186)" fill-rule="evenodd" />
	</g>
</svg>
